<?xml version="1.0" standalone="no"?>
<!DOCTYPE svg PUBLIC "-//W3C//DTD SVG 20010904//EN"
 "http://www.w3.org/TR/2001/REC-SVG-20010904/DTD/svg10.dtd">
<svg version="1.0" xmlns="http://www.w3.org/2000/svg"
 width="260.000000pt" height="260.000000pt" viewBox="0 0 260.000000 260.000000"
 preserveAspectRatio="xMidYMid meet">
<metadata>
Created by potrace 1.11, written by Peter Selinger 2001-2013
</metadata>
<g transform="translate(0.000000,260.000000) scale(0.100000,-0.100000)"
fill="#000000" stroke="none">
<path d="M403 2546 c-18 -8 -41 -29 -51 -46 -18 -28 -19 -58 -21 -390 -2 -404
-3 -402 69 -438 65 -32 131 -8 166 59 10 21 13 102 11 392 l-2 367 -31 31
c-37 36 -93 46 -141 25z"/>
<path d="M2059 2533 c-56 -34 -56 -37 -58 -435 l-2 -367 33 -36 c41 -44 89
-55 141 -30 73 34 72 28 75 431 4 399 3 408 -58 439 -38 20 -98 19 -131 -2z"/>
<path d="M708 2420 c-2 -8 -3 -156 -3 -329 l0 -314 225 -1 225 -1 -1 -105 c-1
-97 -9 -320 -19 -500 -2 -41 -7 -140 -10 -220 -3 -80 -8 -174 -10 -210 -2 -36
-6 -137 -10 -225 -4 -88 -8 -186 -10 -219 -3 -72 8 -116 42 -156 84 -100 241
-88 308 23 24 41 25 44 20 212 -3 94 -7 215 -9 270 -4 88 -11 267 -21 555 -2
47 -6 171 -10 275 -4 105 -8 215 -9 245 l-1 55 228 -1 c198 0 227 2 228 15 1
9 2 157 3 329 l2 312 -60 1 c-34 0 -296 1 -583 2 -459 2 -522 1 -525 -13z"/>
</g>
</svg>
